<svg width="98" height="32" viewBox="0 0 98 32" fill="none" xmlns="http://www.w3.org/2000/svg">
<path d="M11.9854 0H12.8508C15.8552 0.0662326 18.8106 1.29154 20.9333 3.46065C20.1495 4.272 19.3494 5.05024 18.582 5.86159C17.3901 4.76875 15.9532 3.92428 14.3857 3.62624C12.067 3.12949 9.56882 3.57656 7.62576 4.91777C5.50309 6.32521 4.06621 8.70959 3.75597 11.2595C3.41308 13.7764 4.11519 16.4257 5.73169 18.3795C7.28287 20.2837 9.65047 21.4759 12.0997 21.5587C14.3857 21.6912 16.7696 20.9792 18.4351 19.3565C19.7413 18.214 20.3455 16.4754 20.5414 14.7864C17.8309 14.7864 15.1204 14.803 12.4099 14.7864V11.3755H23.8234C24.4112 15.0348 23.5621 19.1578 20.819 21.774C18.9902 23.6285 16.4593 24.7213 13.8795 24.9366C11.3813 25.1849 8.8014 24.7048 6.58076 23.4795C3.91925 22.0389 1.79658 19.6049 0.751574 16.7403C-0.22812 14.1075 -0.244448 11.1271 0.669933 8.47777C1.50267 6.06028 3.10284 3.92428 5.1602 2.43405C7.13592 0.960373 9.53617 0.149023 11.9854 0Z" fill="#3780FF"/>
<path d="M79 1H82V23.996C81.0047 23.996 79.9953 24.0121 79 23.9799C79.014 16.3306 79 8.66532 79 1Z" fill="#38B137"/>
<path fill-rule="evenodd" clip-rule="evenodd" d="M36.951 10.4025C35.2727 9.18322 33.0708 8.75106 31.0384 9.13691C28.4824 9.58451 26.219 11.4829 25.4183 13.9678C24.6176 16.283 24.9718 18.9994 26.4345 20.975C27.7279 22.7654 29.8528 23.8612 32.0392 23.9847C34.4258 24.139 36.874 23.1204 38.3676 21.2219C39.7534 19.5242 40.2769 17.1782 39.8611 15.0328C39.5378 13.1807 38.4754 11.4829 36.951 10.4025ZM29.0045 13.4812C29.5307 12.8085 30.2615 12.3346 31.0507 12.1205C32.3077 11.7842 33.6963 12.1664 34.6463 13.0837C36.1226 14.5055 36.4003 17.0128 35.4356 18.8321C34.8802 19.9023 33.8717 20.7126 32.717 20.9267C31.4746 21.1866 30.1299 20.7432 29.2383 19.7953C27.6744 18.1442 27.5867 15.2547 29.0045 13.4812Z" fill="#FA3913"/>
<path fill-rule="evenodd" clip-rule="evenodd" d="M57.3349 10.9756C55.3616 9.33884 52.4801 8.69032 49.8431 9.13811C46.9966 9.57045 44.4818 11.4079 43.5213 13.8167C42.5608 16.1791 42.9276 18.9585 44.6215 20.9812C46.1234 22.8187 48.6207 23.9304 51.1529 23.9922C53.8073 24.1003 56.4967 23.0812 58.1557 21.2283C60.8975 18.2945 60.5482 13.5233 57.3349 10.9756ZM48.2633 13.4674C48.9202 12.8104 49.8326 12.3367 50.818 12.1228C52.3691 11.7866 54.1026 12.1533 55.2887 13.0701C57.15 14.4912 57.4967 16.9971 56.3106 18.8308C55.6172 19.9004 54.3398 20.6949 52.9165 20.9241C51.3107 21.1992 49.5771 20.7102 48.464 19.717C46.5845 18.0515 46.5115 15.2094 48.2633 13.4674Z" fill="#FCBD06"/>
<path fill-rule="evenodd" clip-rule="evenodd" d="M70.433 9.60425C68.1697 8.59105 65.3771 8.91789 63.2781 10.0945C60.741 11.4836 59.0618 14.0492 59.0071 16.7129C58.8976 19.0662 60.0657 21.4357 62.037 22.9719C63.99 24.508 66.7826 25.2924 69.3196 24.6551C70.4878 24.4099 71.4552 23.7563 72.2948 23.0209C72.3495 24.5407 72.3495 26.2402 71.2179 27.4822C70.1593 28.6915 68.2793 29.051 66.6548 28.7896C65.0303 28.5281 63.7344 27.3842 63.0956 26.0441C62.6668 26.2113 62.2354 26.3691 61.8053 26.5264C61.1004 26.7843 60.3991 27.0408 59.7189 27.3351C60.8141 29.672 63.2781 31.5186 66.1072 31.8945C68.7538 32.254 71.6924 31.7147 73.6089 29.9662C75.3612 28.381 75.9817 26.0768 76 23.9034V9.48985C75.3794 9.48168 74.7634 9.48168 74.1497 9.48168C73.5359 9.48168 72.9245 9.48168 72.313 9.47351C72.3039 9.7023 72.3039 9.93108 72.3039 10.1578C72.3039 10.3846 72.3039 10.6093 72.2948 10.8299C71.729 10.356 71.1449 9.88206 70.433 9.60425ZM64.3285 13.6081C65.0648 12.8102 66.1408 12.2331 67.2923 12.0633C68.8592 11.8087 70.5204 12.3349 71.5587 13.4044C73.2388 15.1358 73.4465 17.8349 72.2005 19.821C71.4643 20.9922 70.0862 21.841 68.5949 21.9768C67.0092 22.1296 65.3668 21.5185 64.3474 20.4151C62.554 18.5478 62.554 15.5093 64.3285 13.6081Z" fill="#3780FF"/>
<path fill-rule="evenodd" clip-rule="evenodd" d="M93.2154 9.4259C90.639 8.51546 87.5441 9.10184 85.5365 10.8301C82.4081 13.4997 82.1404 18.4686 84.9175 21.4314C86.6072 23.314 89.3843 24.2398 91.9941 23.9466C94.353 23.746 96.5445 22.4807 97.8494 20.6752C97.3894 20.3898 96.9293 20.1081 96.4693 19.8265C96.0092 19.5449 95.5491 19.2633 95.0891 18.9778C94.721 19.4099 94.3362 19.8574 93.8511 20.1969C92.6298 21.0919 90.89 21.2616 89.4345 20.7833C88.3973 20.4592 87.6277 19.6568 87.1258 18.7772C88.941 18.0828 90.7519 17.3922 92.5629 16.7017C94.3739 16.0112 96.1849 15.3206 98 14.6262C97.2137 12.4195 95.6579 10.2746 93.2154 9.4259ZM87.0008 16C86.9847 15.1669 87.21 14.3196 87.757 13.6277C88.6098 12.5263 90.2027 11.8062 91.7313 12.0462C92.6806 12.1733 93.6138 12.6534 94 13.4442C91.667 14.3055 89.3339 15.1527 87.0009 16L87.0008 16Z" fill="#FA3913"/>
</svg>
