<svg width="197" height="30" viewBox="0 0 197 30" fill="none" xmlns="http://www.w3.org/2000/svg">
<path fill-rule="evenodd" clip-rule="evenodd" d="M7 5.07614C10.7739 4.61318 21.4817 4.29442 18.5478 19L21.8754 18.7427C20.418 9.67847 23.4669 5.05641 33 4.61318C17.1887 -3.7088 8.18585 4.93042 7 5.07614Z" fill="#FAC415"/>
<path fill-rule="evenodd" clip-rule="evenodd" d="M20.5517 17.1201C21.855 20.6452 25.237 23 28.9968 23C33.9354 23 38 18.937 38 14.0004C38 9.06303 33.9354 5 28.9968 5C27.9317 5 26.876 5.18883 25.8767 5.55776C21.2446 7.26993 18.8412 12.4882 20.5517 17.1201Z" fill="white"/>
<circle cx="10" cy="14" r="9" fill="white"/>
<circle cx="10.5" cy="14.5" r="1.5" fill="#EE6946"/>
<circle cx="29.5" cy="14.5" r="1.5" fill="#00AF87"/>
<path fill-rule="evenodd" clip-rule="evenodd" d="M38.0143 8.81213C38.4333 7.35592 39.0992 5.98484 39.9833 4.76075L33.3016 4.75513C29.3063 2.22341 24.6683 0.92061 19.9556 1.00575C15.127 0.901333 10.3706 2.221 6.26984 4.80332L0 4.80653C0.87619 6.02179 1.53889 7.38082 1.95952 8.82338C0.695238 10.5615 0.0126984 12.6651 0.0126984 14.8242C0.0126984 20.3775 4.52778 24.947 10.0151 24.947C13.0524 24.947 15.9302 23.5462 17.827 21.1446L19.9579 24.3735L22.1095 21.1173C24.0056 23.5671 26.9151 25 29.9897 25C35.481 25 40 20.4265 40 14.8691C40 12.6868 39.3032 10.5615 38.0143 8.81213ZM29 4.90453C24.0279 5.04987 19.9232 9.00374 19.5562 14C19.1862 8.9553 15.0209 4.97408 10 4.86624C13.014 3.60507 16.2514 2.97135 19.5151 3.00261C22.7742 2.95338 26.0078 3.60116 29 4.90453ZM10.0004 23H9.9996C5.6109 23 2 19.3891 2 15.0004C2 10.6109 5.6109 7 9.9996 7C14.3883 7 18 10.6109 18 15.0004V15.002C17.9944 19.3883 14.3867 22.9952 10.0004 23ZM32.7702 22.511C28.6534 24.029 24.0163 21.8919 22.4941 17.7743V17.772C22.1676 16.885 22 15.948 22 15.0031C22 10.6121 25.6115 7 30 7C34.3893 7 38 10.6121 38 15.0031C38 18.3466 35.9059 21.3531 32.7702 22.511ZM10.0072 10H10C7.25646 10 5 12.2573 5 15C5 17.7435 7.25646 20 10 20C12.7427 20 15 17.7435 15 15V14.9992C14.9952 12.2613 12.7451 10.008 10.0072 10ZM10.0062 18H10.0004C8.35479 18 7 16.4201 7 14.5C7 12.5799 8.35479 11 10.0004 11C11.6452 11 12.9993 12.5799 13 14.4991C12.9963 16.4158 11.6481 17.9914 10.0062 18ZM30.0024 10H30C27.2565 10 25 12.2573 25 15C25 17.7435 27.2565 20 30 20C32.7427 20 35 17.7435 35 15V14.9992C34.996 12.2589 32.7427 10.0048 30.0024 10ZM30.0011 18H29.9996C28.3541 18 27 16.4201 27 14.5C27 12.5799 28.3541 11 29.9996 11C31.6452 11 32.9993 12.5799 33 14.4991C32.9978 16.4184 31.6452 17.9966 30.0011 18Z" fill="black"/>
<path fill-rule="evenodd" clip-rule="evenodd" d="M142 3.00124C142 4.09821 142.903 5 144 5C145.097 5 146 4.09739 146 3.00041C146 1.90261 145.097 1 144 1C142.903 1.00165 142 1.90426 142 3.00124Z" fill="#00AF87"/>
<path fill-rule="evenodd" clip-rule="evenodd" d="M50.9894 3.07796L48.1502 4.07646V7.86099H45V10.3982H48.0591V18.5429C48.0591 22.4203 49.3548 24 52.5282 24C53.3207 24.0023 54.1102 23.8968 54.8758 23.685L55 23.6511L54.9645 21.0234L54.7461 21.1013C54.2707 21.295 53.7668 21.4076 53.2559 21.4344C51.7657 21.4344 51.2108 20.5745 51.2108 18.2649V10.3982H54.8464V7.86099H51.2108V3L50.9894 3.07796ZM61.0635 10.8234V8.27633H58V24H61.3525V16.1073C61.3525 12.7968 62.8132 10.9741 65.4646 10.9741C65.8735 10.978 66.2807 11.0381 66.6716 11.1521L66.8916 11.2114L67 8.10538L65.559 8C63.6081 8.01093 61.8403 9.12173 61.0635 10.8234ZM83.3438 7.00018C81.157 6.98342 79.1161 8.11977 77.9764 9.98708V7.37684H75V30H78.2579V21.2276C79.3992 22.8228 81.2614 23.7501 83.221 23.699C87.3394 23.699 90 20.3243 90 15.0998C90 10.2552 87.3259 7.00018 83.3438 7.00018ZM83.0153 21C80.5399 21 79 18.8696 79 15.4386C79 12.135 80.6242 10 83.1364 10C85.5558 10 87 12.0215 87 15.4101C87 18.858 85.4731 21 83.0153 21Z" fill="black"/>
<path fill-rule="evenodd" clip-rule="evenodd" d="M99.1241 8.00184C97.3287 7.9693 95.5504 8.36955 93.926 9.17006L93.8273 9.21806L93.863 12.054L94.1102 11.9092C95.3763 11.103 96.8196 10.6491 98.3003 10.5905C100.599 10.5905 101.916 11.9702 101.916 14.3758V14.5166H100.102C94.8758 14.5166 92 16.4975 92 20.0933C92 22.9789 94.0744 24.9956 97.0489 24.9956C99.0479 25.0737 100.956 24.0991 102.129 22.4029V24.7727H105V14.8526C105 10.3066 103.024 8.00184 99.1241 8.00184ZM102 18.0661C102 21.061 100.316 22.9922 97.7074 22.9922L97.5178 23C96.1367 23 95 21.7855 95 20.3088L95.0008 20.2665C95.0008 18.1593 96.8845 17 100.306 17H102V18.0661ZM118.728 0V10.2679C117.594 8.54715 115.689 7.54048 113.681 7.60282C109.685 7.60282 107 11.0202 107 16.1051C107 21.3421 109.721 24.998 113.619 24.998C115.82 25.0554 117.882 23.8534 118.98 21.8724V24.7395H122V0H118.728ZM114.895 22C112.492 22 111 19.7206 111 16.0496C111 12.3743 112.505 10 114.834 10C117.443 10 119 12.2618 119 16.0496C119 19.6652 117.388 22 114.895 22ZM136.591 8L131.958 17.8111L127.681 8H124L131.893 25L140 8H136.591ZM143.841 8H141V25H144V8H143.841ZM148.227 12.4539C148.227 14.7926 149.799 16.0221 152.698 17.4685C154.527 18.388 155.485 18.9282 155.485 20.2237C155.485 21.5489 154.307 22.4098 152.489 22.4098C151.047 22.371 149.633 22.0008 148.352 21.3246L148.11 21.205L148 24.1316L148.115 24.1795C149.468 24.7237 150.909 25.0016 152.363 25C156.394 25 159 23.0365 159 19.9969C159 17.4619 157.35 16.1788 154.495 14.8157C152.4 13.8137 151.524 13.2241 151.524 12.162C151.524 11.1485 152.498 10.4954 154.009 10.4954C155.376 10.4962 156.727 10.8112 157.959 11.4173L158.195 11.5319L158.344 8.66301L158.211 8.62178C156.91 8.21935 155.559 8.01072 154.2 8C150.627 8 148.227 9.78947 148.227 12.4539ZM168.983 8C164.059 8 161 11.257 161 16.4996C161 21.743 164.059 25 168.983 25C173.927 25 177 21.743 177 16.4996C177 11.257 173.927 8 168.983 8ZM168.499 22C165.81 22 164 19.5936 164 16.0157C164 12.418 165.81 10 168.499 10C171.234 10 173 12.3594 173 16.0157C173 19.6506 171.234 22 168.499 22ZM182.062 10.9999V8.2936H179V25H182.352V16.614C182.352 13.0966 183.814 11.16 186.463 11.16C186.872 11.1641 187.279 11.2272 187.67 11.3491L187.891 11.4121L188 8.11197L186.559 8C184.608 8.01244 182.84 9.19183 182.062 10.9999Z" fill="#00AF87"/>
<path fill-rule="evenodd" clip-rule="evenodd" d="M71.8414 7H69V23H72V7H71.8414ZM69 3.00041C69.0008 4.09776 69.9031 5 71.0004 5C72.0978 5 73 4.09693 73 2.99959C73 1.90307 72.0978 1 71.0004 1C69.9039 1.00165 69.0016 1.90389 69 3.00041Z" fill="black"/>
<path fill-rule="evenodd" clip-rule="evenodd" d="M196.3 6.7543C196.756 7.22034 197.009 7.84926 197 8.50076C197.01 9.16868 196.741 9.81129 196.259 10.2732C195.788 10.7345 195.155 10.9952 194.496 11C193.824 11 193.182 10.7249 192.719 10.239C192.26 9.77707 192.001 9.15226 192 8.50076C192.002 7.82531 192.276 7.1786 192.76 6.70571C193.22 6.24857 193.846 5.99399 194.496 6.00015C195.175 5.99262 195.829 6.26568 196.3 6.7543ZM192.604 6.5634C192.217 6.94375 192 7.4634 192 8.00447C192.009 9.0933 192.902 9.98795 193.994 10C194.524 9.99933 195.033 9.79241 195.412 9.42411C196.186 8.65335 196.197 7.3884 195.438 6.60358C195.063 6.21518 194.543 5.99688 194.002 6.00023C193.479 5.99219 192.974 6.19576 192.604 6.5634ZM193.953 7C194.634 7 194.978 7.30885 194.978 7.87031C194.981 8.25562 194.77 8.5952 194.474 8.68141L195 10H194.285L193.841 8.80885H193.65V10H193V7H193.953ZM194 9H194.353C194.785 9 195 8.84019 195 8.51402C195 8.14953 194.775 8 194.299 8H194V9Z" fill="#00AF87" fill-opacity="0.5"/>
</svg>
